<svg width="128" height="128" viewBox="0 0 128 128" fill="none" xmlns="http://www.w3.org/2000/svg">
<g clip-path="url(#clip0_45_970)">
<path d="M17.2802 116.105L7 0H120L109.706 116.086L63.4313 129L17.2802 116.105Z" fill="#1572B6"/>
<path d="M63 119L101.049 108.53L110 9H63V119Z" fill="#33A9DC"/>
<path d="M63 51.7801H81.9987L83.3086 37.2199H63V23H99L98.6563 26.8137L95.1306 66H63V51.7801Z" fill="white"/>
<path d="M63 88.388L62.936 88.4061L47.1959 84.1859L46.1899 73H32L33.9801 95.0224L62.9314 103L63 102.982V88.388Z" fill="#EBEBEB"/>
<path d="M80.6601 65L78.9399 83.984L63 88.2495V103L92.2994 94.9459L92.5168 92.5517L95 65H80.6601Z" fill="white"/>
<path d="M63 23V37.2199H29.2521L28.9718 34.0226L28.3345 26.8137L28 23H63ZM62.9503 51.7801V66H47.5861L47.3058 62.8027L46.673 55.5939L46.3385 51.7801H62.9503Z" fill="#EBEBEB"/>
</g>
<defs>
<clipPath id="clip0_45_970">
<rect width="128" height="128" fill="white"/>
</clipPath>
</defs>
</svg>
