<svg width="128" height="128" viewBox="0 0 128 128" fill="none" xmlns="http://www.w3.org/2000/svg">
<path d="M125.577 58.2959L69.6881 2.41492C68.9229 1.64932 68.0143 1.04199 67.0143 0.627634C66.0143 0.213273 64.9425 0 63.86 0C62.7775 0 61.7057 0.213273 60.7057 0.627634C59.7057 1.04199 58.7971 1.64932 58.0319 2.41492L46.4317 14.0151L61.152 28.7354C62.888 28.1426 64.7558 28.0499 66.542 28.4678C68.3282 28.8856 69.961 29.7972 71.254 31.0986C72.547 32.3999 73.4481 34.0385 73.8545 35.8274C74.2608 37.6163 74.1561 39.4834 73.5522 41.2156L87.7364 55.4079C89.835 54.669 92.1226 54.6667 94.2225 55.4015C96.3225 56.1363 98.1097 57.5643 99.2897 59.4503C100.47 61.3364 100.972 63.5681 100.715 65.7779C100.457 67.9878 99.4548 70.0441 97.8726 71.6081C96.2709 73.2197 94.1593 74.2252 91.8985 74.4528C89.6378 74.6804 87.3681 74.1161 85.4773 72.8561C83.5864 71.5962 82.1917 69.7188 81.5313 67.5447C80.8708 65.3707 80.9857 63.0347 81.8563 60.936L68.6321 47.7037V82.5283C70.6422 83.5233 72.2505 85.1772 73.1891 87.2142C74.1276 89.2513 74.3397 91.5485 73.7898 93.723C73.24 95.8974 71.9615 97.8177 70.1675 99.1638C68.3735 100.51 66.1723 101.201 63.9309 101.12C61.6894 101.04 59.5431 100.195 57.8497 98.7239C56.1563 97.2532 55.0181 95.2466 54.6248 93.0385C54.2314 90.8304 54.6068 88.5541 55.6883 86.5892C56.7697 84.6243 58.492 83.0894 60.5679 82.2403V47.0957C59.3702 46.6049 58.2815 45.882 57.3645 44.9684C56.4476 44.0549 55.7205 42.9689 55.2252 41.7731C54.7299 40.5772 54.4762 39.2952 54.4787 38.0008C54.4812 36.7064 54.7399 35.4254 55.2399 34.2315L40.7356 19.7192L2.41492 58.0399C1.64932 58.8051 1.04199 59.7137 0.627634 60.7137C0.213273 61.7137 0 62.7855 0 63.868C0 64.9505 0.213273 66.0223 0.627634 67.0223C1.04199 68.0223 1.64932 68.9309 2.41492 69.6961L58.3039 125.585C59.0691 126.351 59.9777 126.958 60.9777 127.372C61.9777 127.787 63.0496 128 64.132 128C65.2145 128 66.2863 127.787 67.2863 127.372C68.2863 126.958 69.1949 126.351 69.9601 125.585L125.585 69.9601C126.351 69.1949 126.958 68.2863 127.372 67.2863C127.787 66.2863 128 65.2145 128 64.132C128 63.0496 127.787 61.9777 127.372 60.9777C126.958 59.9777 126.351 59.0691 125.585 58.3039" fill="#FF0000"/>
</svg>
