<svg width="128" height="128" viewBox="0 0 128 128" fill="none" xmlns="http://www.w3.org/2000/svg">
<path d="M18.193 115.205L8 0H120L109.793 115.186L63.932 128L18.193 115.205Z" fill="#E44F26"/>
<path d="M63 118L101.049 107.625L110 9H63V118Z" fill="#F1662A"/>
<path d="M63 51.594H44.529L43.2555 37.1279H63V23H28L28.3342 26.7936L31.7619 65.7218H63V51.594ZM63 88.2825L62.9368 88.3008L47.3923 84.0547L46.3987 72.788H32.3852L34.3406 94.9648L62.9368 103L63 102.982V88.2825Z" fill="#EBEBEB"/>
<path d="M63 51.5956V65.7243H81.187L79.4763 84.049L63 88.3V103L93.2814 94.9689L93.5012 92.5829L96.9704 55.3894L97.3336 51.5956H63ZM63 23V37.1287H98.6763L98.9726 33.9565L99.6464 26.7939L100 23H63Z" fill="white"/>
</svg>
