<svg width="128" height="128" viewBox="0 0 128 128" fill="none" xmlns="http://www.w3.org/2000/svg">
<path d="M8 8H120V120H8V8Z" fill="#F5DE19"/>
<path d="M83.236 95.5C84.1918 97.4372 85.6747 99.0654 87.5144 100.198C89.3541 101.33 91.4759 101.92 93.636 101.9C97.996 101.9 100.784 99.72 100.784 96.7C100.784 93.1 97.92 91.812 93.12 89.712L90.488 88.584C82.888 85.348 77.848 81.296 77.848 72.728C77.848 64.836 83.848 58.824 93.26 58.824C96.3067 58.6045 99.3507 59.2867 102.012 60.7854C104.674 62.2841 106.836 64.5331 108.228 67.252L100 72.512C99.4636 71.1641 98.5303 70.0108 97.3239 69.2051C96.1174 68.3993 94.6946 67.9791 93.244 68C92.611 67.9367 91.9718 68.0059 91.3671 68.2032C90.7623 68.4005 90.2053 68.7216 89.7315 69.1461C89.2578 69.5706 88.8776 70.0891 88.6153 70.6686C88.353 71.2481 88.2143 71.876 88.208 72.512C88.208 75.668 90.164 76.948 94.68 78.912L97.312 80.04C106.256 83.876 111.312 87.784 111.312 96.572C111.312 106.048 103.868 111.24 93.872 111.24C89.9776 111.486 86.0952 110.6 82.6923 108.691C79.2894 106.781 76.5111 103.928 74.692 100.476L83.236 95.5ZM46.056 96.412C47.708 99.344 49.212 101.824 52.828 101.824C56.284 101.824 58.468 100.472 58.468 95.212V59.424H68.992V95.352C68.992 106.248 62.592 111.208 53.276 111.208C49.983 111.388 46.7126 110.567 43.8947 108.854C41.0768 107.141 38.8434 104.615 37.488 101.608L46.056 96.412Z" fill="black"/>
</svg>
