<svg width="193" height="255" viewBox="0 0 193 255" fill="none" xmlns="http://www.w3.org/2000/svg">
<path d="M167.768 254.116C164.061 254.116 160.473 254.116 156.886 254.116V212.163C160.473 212.163 164.061 212.163 167.768 212.163V228.045H168.545C179.248 228.045 178.71 220.014 178.71 212.163C182.357 212.163 186.004 212.163 189.711 212.163C189.711 220.733 189.951 228.644 181.64 233.978L193 252.438V254.116H181.101L171.893 237.874C170.458 238.114 169.143 238.114 167.768 238.114V254.116Z" fill="white"/>
<path d="M125.469 241.29C125.469 246.624 138.563 246.504 138.563 241.59C138.563 238.653 135.095 238.174 130.91 237.934C121.821 237.275 115.842 234.158 115.723 225.048C115.364 206.949 147.891 206.949 147.652 225.048C143.885 225.048 141.134 225.048 137.487 225.048C137.487 219.475 126.246 219.954 125.887 224.929C125.648 228.105 128.757 228.764 132.524 229.184C140.835 230.083 148.967 231.162 148.967 241.65C148.967 259.27 114.886 259.75 115.125 241.29C118.712 241.29 121.821 241.29 125.469 241.29Z" fill="white"/>
<path d="M90.6386 221.752H80.3544C80.3544 218.516 80.3544 215.339 80.3544 212.163H111.446C111.446 215.339 111.446 218.516 111.446 221.752H101.222V254.116C97.6941 254.116 94.1663 254.116 90.6386 254.116V221.752Z" fill="white"/>
<path d="M57.5331 245.066C60.6423 245.066 63.871 243.388 63.871 239.972V212.163C67.2791 212.163 70.8667 212.163 74.215 212.163V240.152C74.215 249.381 66.1431 254.715 57.5331 254.715C48.9828 254.715 40.9109 249.381 40.9109 240.152V212.163C44.2593 212.163 47.787 212.163 51.1353 212.163V239.972C51.1353 243.388 54.4239 245.066 57.5331 245.066Z" fill="white"/>
<path d="M31.2517 225.048C31.2517 227.566 29.9961 230.622 27.9632 232.3C31.3713 234.038 32.9857 237.155 32.9857 240.871C32.9259 248.183 28.5013 254.116 19.9511 254.116H0.339328V212.163H18.2171C25.4519 212.163 31.2517 217.797 31.2517 225.048ZM19.1738 237.455H10.6833V244.587H19.2336C23.5386 244.587 23.4788 237.455 19.1738 237.455ZM17.38 221.752H10.6833V228.644H17.4398C21.685 228.644 21.685 221.752 17.38 221.752Z" fill="white"/>
<path d="M93.8273 84.0906L170.821 0H188.482V194.183C171.649 194.183 154.815 194.183 137.981 194.183V107.879L96.8628 151.031H91.3436L50.5012 107.879V194.183C33.6674 194.183 16.8337 194.183 0 194.183V0H18.2135L93.8273 84.0906Z" fill="white"/>
</svg>
