<svg width="128" height="128" viewBox="0 0 128 128" fill="none" xmlns="http://www.w3.org/2000/svg">
<g clip-path="url(#clip0_45_982)">
<path d="M63.458 0.0360107C31.042 0.0360107 33.066 14.1486 33.066 14.1486L33.102 28.7698H64.036V33.1594H20.8155C20.8155 33.1594 0.0725021 30.7977 0.0725021 63.6334C0.0725021 96.4702 18.1775 95.3057 18.1775 95.3057H28.9825V80.0681C28.9825 80.0681 28.4 61.8921 46.7985 61.8921H77.4795C77.4795 61.8921 94.717 62.1717 94.717 45.1673V17.0515C94.717 17.0515 97.335 0.0360107 63.458 0.0360107ZM46.401 9.86842C47.132 9.86776 47.8559 10.0118 48.5314 10.2923C49.2069 10.5729 49.8206 10.9844 50.3375 11.5033C50.8544 12.0222 51.2643 12.6384 51.5437 13.3165C51.8232 13.9946 51.9667 14.7214 51.966 15.4552C51.9667 16.1891 51.8232 16.9159 51.5437 17.594C51.2643 18.2721 50.8544 18.8883 50.3375 19.4072C49.8206 19.9261 49.2069 20.3376 48.5314 20.6181C47.8559 20.8987 47.132 21.0427 46.401 21.0421C45.67 21.0427 44.9461 20.8987 44.2706 20.6181C43.5951 20.3376 42.9814 19.9261 42.4645 19.4072C41.9476 18.8883 41.5377 18.2721 41.2583 17.594C40.9788 16.9159 40.8353 16.1891 40.836 15.4552C40.8353 14.7214 40.9788 13.9946 41.2583 13.3165C41.5377 12.6384 41.9476 12.0222 42.4645 11.5033C42.9814 10.9844 43.5951 10.5729 44.2706 10.2923C44.9461 10.0118 45.67 9.86776 46.401 9.86842Z" fill="url(#paint0_linear_45_982)"/>
<path d="M64.3785 127.561C96.7945 127.561 94.7705 113.449 94.7705 113.449L94.7345 98.828H63.8V94.4384H107.021C107.021 94.4384 127.763 96.8001 127.763 63.9633C127.763 31.1271 109.659 32.2916 109.659 32.2916H98.8535V47.5286C98.8535 47.5286 99.436 65.7046 81.0375 65.7046H50.3565C50.3565 65.7046 33.119 65.425 33.119 82.43V110.546C33.119 110.546 30.5015 127.561 64.378 127.561M81.435 117.73C80.704 117.731 79.9801 117.586 79.3046 117.306C78.6291 117.025 78.0154 116.614 77.4985 116.095C76.9816 115.576 76.5717 114.96 76.2923 114.282C76.0128 113.604 75.8693 112.877 75.87 112.143C75.8693 111.409 76.0127 110.682 76.2921 110.004C76.5715 109.326 76.9814 108.71 77.4983 108.191C78.0152 107.672 78.629 107.26 79.3045 106.98C79.98 106.699 80.704 106.555 81.435 106.556C82.166 106.555 82.8899 106.699 83.5654 106.98C84.2409 107.26 84.8546 107.672 85.3715 108.191C85.8884 108.709 86.2983 109.326 86.5777 110.004C86.8572 110.682 87.0007 111.409 87 112.143C87.0007 112.876 86.8572 113.603 86.5777 114.281C86.2983 114.959 85.8884 115.576 85.3715 116.094C84.8546 116.613 84.2409 117.025 83.5654 117.305C82.8899 117.586 82.166 117.731 81.435 117.73Z" fill="url(#paint1_linear_45_982)"/>
</g>
<defs>
<linearGradient id="paint0_linear_45_982" x1="1227.18" y1="1147.05" x2="7579.68" y2="7411.6" gradientUnits="userSpaceOnUse">
<stop stop-color="#387EB8"/>
<stop offset="1" stop-color="#366994"/>
</linearGradient>
<linearGradient id="paint1_linear_45_982" x1="1844.33" y1="1992.95" x2="8664.95" y2="8415.51" gradientUnits="userSpaceOnUse">
<stop stop-color="#FFE052"/>
<stop offset="1" stop-color="#FFC331"/>
</linearGradient>
<clipPath id="clip0_45_982">
<rect width="128" height="128" fill="white"/>
</clipPath>
</defs>
</svg>
